<svg width="40" height="40" viewBox="0 0 40 40" fill="none" xmlns="http://www.w3.org/2000/svg">
<path d="M37.6791 37.6562H34.5875V1.17188C34.5875 0.524687 34.0628 0 33.4156 0H6.5857C5.93852 0 5.41383 0.524687 5.41383 1.17188V37.6562H2.32227C1.67508 37.6562 1.15039 38.1809 1.15039 38.8281C1.15039 39.4753 1.67508 40 2.32227 40H37.6792C38.3264 40 38.8511 39.4753 38.8511 38.8281C38.8511 38.1809 38.3264 37.6562 37.6791 37.6562ZM16.0061 37.6562V29.6671H23.9952V37.6562H16.0061ZM26.339 37.6562V28.4952C26.339 27.848 25.8143 27.3234 25.1671 27.3234H14.8342C14.187 27.3234 13.6623 27.848 13.6623 28.4952V37.6562H7.75758V2.34375H32.2437V37.6562H26.339Z" fill="#868686"/>
<path d="M17.4811 5.17969H11.7383C11.0911 5.17969 10.5664 5.70437 10.5664 6.35156V12.0944C10.5664 12.7416 11.0911 13.2662 11.7383 13.2662H17.4811C18.1283 13.2662 18.653 12.7416 18.653 12.0944V6.35156C18.653 5.70437 18.1283 5.17969 17.4811 5.17969ZM16.3092 10.9225H12.9102V7.52344H16.3092V10.9225ZM28.2633 5.17969H22.5205C21.8733 5.17969 21.3486 5.70437 21.3486 6.35156V12.0944C21.3486 12.7416 21.8733 13.2662 22.5205 13.2662H28.2633C28.9105 13.2662 29.4352 12.7416 29.4352 12.0944V6.35156C29.4352 5.70437 28.9105 5.17969 28.2633 5.17969ZM27.0914 10.9225H23.6923V7.52344H27.0914V10.9225ZM17.4811 16.0895H11.7383C11.0911 16.0895 10.5664 16.6141 10.5664 17.2613V23.0041C10.5664 23.6513 11.0911 24.176 11.7383 24.176H17.4811C18.1283 24.176 18.653 23.6513 18.653 23.0041V17.2613C18.653 16.6141 18.1283 16.0895 17.4811 16.0895ZM16.3092 21.8323H12.9102V18.4332H16.3092V21.8323ZM28.2633 16.0895H22.5205C21.8733 16.0895 21.3486 16.6141 21.3486 17.2613V23.0041C21.3486 23.6513 21.8733 24.176 22.5205 24.176H28.2633C28.9105 24.176 29.4352 23.6513 29.4352 23.0041V17.2613C29.4352 16.6141 28.9105 16.0895 28.2633 16.0895ZM27.0914 21.8323H23.6923V18.4332H27.0914V21.8323Z" fill="#868686"/>
</svg>
