<svg width="40" height="40" viewBox="0 0 40 40" fill="none" xmlns="http://www.w3.org/2000/svg">
<path d="M37.0249 18.3998C36.2154 18.2037 35.3781 18.1487 34.5499 18.2373C34.3702 17.7878 34.1679 17.3477 33.9437 16.9186C33.8807 16.8041 33.865 16.6695 33.8999 16.5436C34.4749 14.5248 35.6687 9.59983 34.2374 7.39983C34.0814 7.16168 33.8774 6.95865 33.6385 6.8037C33.3996 6.64874 33.131 6.54525 32.8499 6.49983C30.8562 6.14983 27.7187 8.24358 26.0312 9.51858C25.9658 9.56741 25.8893 9.59926 25.8086 9.61125C25.7279 9.62325 25.6455 9.61503 25.5687 9.58733C24.1293 9.00961 22.6172 8.63315 21.0749 8.46858C20.3588 8.43108 19.6411 8.43108 18.9249 8.46858C17.3827 8.63315 15.8706 9.00961 14.4312 9.58733C14.3544 9.61503 14.272 9.62325 14.1913 9.61125C14.1106 9.59926 14.0341 9.56741 13.9687 9.51858C12.2812 8.24358 9.15619 6.14983 7.14994 6.49983C6.86884 6.54525 6.60029 6.64874 6.36141 6.8037C6.12252 6.95865 5.91853 7.16168 5.76244 7.39983C4.33119 9.59983 5.52494 14.5248 6.09994 16.5436C6.13493 16.6695 6.11922 16.8041 6.05619 16.9186C5.83199 17.3477 5.62965 17.7878 5.44994 18.2373C4.62174 18.1487 3.78446 18.2037 2.97494 18.3998C2.81972 18.4447 2.6879 18.5479 2.60714 18.6878C2.52637 18.8278 2.50293 18.9935 2.54173 19.1504C2.58054 19.3072 2.67857 19.4429 2.81527 19.5291C2.95197 19.6152 3.11672 19.645 3.27494 19.6123C3.84356 19.4768 4.42877 19.4242 5.01244 19.4561C4.59939 20.7642 4.42784 22.1365 4.50619 23.5061C4.02293 23.7023 3.56199 23.9495 3.13119 24.2436C3.06371 24.2902 3.00612 24.3497 2.96172 24.4187C2.91732 24.4877 2.88698 24.5647 2.87246 24.6455C2.85794 24.7262 2.85952 24.809 2.87711 24.8891C2.8947 24.9692 2.92794 25.0451 2.97494 25.1123C3.06997 25.2473 3.21398 25.3399 3.37627 25.3702C3.53856 25.4006 3.70629 25.3664 3.84369 25.2748C4.10927 25.0918 4.38937 24.9309 4.68119 24.7936C4.78565 25.3279 4.95788 25.8466 5.19369 26.3373C8.88119 33.2936 18.5374 33.5373 19.8499 33.5373H20.1249C21.4624 33.5373 31.1187 33.2936 34.8062 26.3373C35.042 25.8466 35.2142 25.3279 35.3187 24.7936C35.6105 24.9309 35.8906 25.0918 36.1562 25.2748C36.2936 25.3664 36.4613 25.4006 36.6236 25.3702C36.7859 25.3399 36.9299 25.2473 37.0249 25.1123C37.0719 25.0451 37.1052 24.9692 37.1228 24.8891C37.1404 24.809 37.1419 24.7262 37.1274 24.6455C37.1129 24.5647 37.0826 24.4877 37.0382 24.4187C36.9938 24.3497 36.9362 24.2902 36.8687 24.2436C36.4379 23.9495 35.977 23.7023 35.4937 23.5061C35.572 22.1365 35.4005 20.7642 34.9874 19.4561C35.5711 19.4242 36.1563 19.4768 36.7249 19.6123C36.8832 19.645 37.0479 19.6152 37.1846 19.5291C37.3213 19.4429 37.4193 19.3072 37.4582 19.1504C37.497 18.9935 37.4735 18.8278 37.3928 18.6878C37.312 18.5479 37.1802 18.4447 37.0249 18.3998ZM30.6749 24.0623C31.8361 23.97 33.0044 24.0735 34.1312 24.3686C34.0556 24.8476 33.9103 25.3129 33.6999 25.7498C30.1874 32.3873 20.1062 32.2936 19.9874 32.2873C19.8812 32.2873 9.81869 32.3873 6.29994 25.7498C6.08962 25.3129 5.94433 24.8476 5.86869 24.3686C6.99549 24.0736 8.16384 23.9701 9.32494 24.0623C9.48904 24.0822 9.65433 24.0361 9.78443 23.9341C9.91453 23.8322 9.9988 23.6827 10.0187 23.5186C10.0386 23.3545 9.99247 23.1892 9.8905 23.0591C9.78852 22.929 9.63904 22.8447 9.47494 22.8248C8.22248 22.7086 6.9594 22.8015 5.73744 23.0998C5.71291 21.9195 5.89264 20.7439 6.26869 19.6248C7.69806 19.9532 9.05842 20.5308 10.2874 21.3311C10.4235 21.4204 10.589 21.4531 10.7488 21.4221C10.9085 21.3912 11.0499 21.2991 11.1428 21.1655C11.2357 21.0319 11.2727 20.8673 11.246 20.7068C11.2193 20.5462 11.1311 20.4025 10.9999 20.3061C9.69063 19.438 8.23961 18.8056 6.71244 18.4373C6.84994 18.1311 6.99994 17.8186 7.16244 17.4998C7.37633 17.099 7.42781 16.6313 7.30619 16.1936C6.44994 13.2186 5.87494 9.52483 6.81244 8.08108C6.87311 7.98678 6.95388 7.90707 7.04897 7.84764C7.14405 7.78821 7.2511 7.75054 7.36244 7.73733C7.45294 7.71914 7.54514 7.71076 7.63744 7.71233C8.79994 7.71233 10.8874 8.75608 13.2187 10.5186C13.4515 10.6962 13.726 10.8113 14.0159 10.8529C14.3058 10.8945 14.6016 10.8612 14.8749 10.7561C15.1687 10.6436 15.6249 10.4811 16.1562 10.3123V12.8123C16.1562 12.9781 16.222 13.1371 16.3393 13.2543C16.4565 13.3715 16.6154 13.4373 16.7812 13.4373C16.947 13.4373 17.1059 13.3715 17.2231 13.2543C17.3403 13.1371 17.4062 12.9781 17.4062 12.8123V9.96858C17.9225 9.83647 18.4496 9.75071 18.9812 9.71233C19.1124 9.70608 19.2437 9.70608 19.3749 9.70608V15.1623C19.3749 15.3281 19.4408 15.4871 19.558 15.6043C19.6752 15.7215 19.8342 15.7873 19.9999 15.7873C20.1657 15.7873 20.3247 15.7215 20.4419 15.6043C20.5591 15.4871 20.6249 15.3281 20.6249 15.1623V9.70608C20.7562 9.70608 20.8874 9.70608 21.0187 9.71233C21.5503 9.75071 22.0774 9.83647 22.5937 9.96858V12.8123C22.5937 12.9781 22.6595 13.1371 22.7768 13.2543C22.894 13.3715 23.0529 13.4373 23.2187 13.4373C23.3845 13.4373 23.5434 13.3715 23.6606 13.2543C23.7778 13.1371 23.8437 12.9781 23.8437 12.8123V10.3123C24.3749 10.4811 24.8312 10.6436 25.1249 10.7561C25.3983 10.8613 25.6941 10.8948 25.984 10.8532C26.274 10.8116 26.5484 10.6964 26.7812 10.5186C29.3062 8.61233 31.5562 7.54358 32.6374 7.73733C32.749 7.74972 32.8564 7.78706 32.9516 7.84656C33.0468 7.90606 33.1274 7.98621 33.1874 8.08108C34.1249 9.52483 33.5499 13.2186 32.6937 16.1936C32.5721 16.6313 32.6236 17.099 32.8374 17.4998C33.0062 17.8186 33.1499 18.1311 33.2874 18.4373C31.7603 18.8056 30.3093 19.438 28.9999 20.3061C28.9302 20.3518 28.8704 20.4111 28.824 20.4804C28.7775 20.5496 28.7455 20.6275 28.7296 20.7094C28.7138 20.7912 28.7145 20.8754 28.7317 20.957C28.7489 21.0386 28.7823 21.1159 28.8299 21.1844C28.8775 21.2529 28.9383 21.3111 29.0088 21.3557C29.0793 21.4003 29.158 21.4303 29.2402 21.4439C29.3225 21.4576 29.4067 21.4547 29.4878 21.4353C29.5689 21.4159 29.6453 21.3805 29.7124 21.3311C30.9415 20.5308 32.3018 19.9532 33.7312 19.6248C34.1072 20.7439 34.287 21.9195 34.2624 23.0998C33.0405 22.8015 31.7774 22.7086 30.5249 22.8248C30.4437 22.8347 30.3652 22.8604 30.2939 22.9006C30.2226 22.9408 30.1599 22.9947 30.1094 23.0591C30.0589 23.1235 30.0216 23.1972 29.9996 23.2761C29.9776 23.3549 29.9713 23.4373 29.9812 23.5186C29.991 23.5998 30.0168 23.6784 30.057 23.7497C30.0972 23.821 30.151 23.8836 30.2155 23.9341C30.2799 23.9846 30.3536 24.0219 30.4324 24.0439C30.5113 24.0659 30.5937 24.0722 30.6749 24.0623Z" fill="#868686" stroke="#868686"/>
<path d="M25.2813 24.6022C25.2084 24.5649 25.1287 24.5424 25.047 24.5361C24.9653 24.5297 24.8831 24.5396 24.8053 24.5652C24.7274 24.5907 24.6554 24.6315 24.5933 24.685C24.5313 24.7386 24.4805 24.8039 24.4438 24.8772C23.9563 25.8522 23.2501 26.4084 22.5001 26.4084C22.0888 26.3654 21.6969 26.2111 21.3666 25.9623C21.0363 25.7135 20.78 25.3794 20.6251 24.9959V23.7084C20.7356 23.6461 20.8367 23.5682 20.9251 23.4772L21.7563 22.5647C21.921 22.3864 22.03 22.1639 22.0701 21.9246C22.1102 21.6852 22.0796 21.4394 21.9821 21.2172C21.8846 20.9949 21.7244 20.806 21.5211 20.6734C21.3178 20.5409 21.0803 20.4705 20.8376 20.4709H19.1626C18.9199 20.4705 18.6824 20.5409 18.4791 20.6734C18.2758 20.806 18.1156 20.9949 18.018 21.2172C17.9205 21.4394 17.89 21.6852 17.9301 21.9246C17.9702 22.1639 18.0792 22.3864 18.2438 22.5647L19.0751 23.4772C19.1635 23.5682 19.2645 23.6461 19.3751 23.7084V24.9959C19.2202 25.3794 18.9638 25.7135 18.6335 25.9623C18.3032 26.2111 17.9114 26.3654 17.5001 26.4084C16.7501 26.4084 16.0438 25.8522 15.5563 24.8772C15.5194 24.8041 15.4684 24.7391 15.4064 24.6857C15.3443 24.6324 15.2723 24.5918 15.1945 24.5662C15.1168 24.5407 15.0347 24.5307 14.9531 24.5369C14.8715 24.5431 14.7919 24.5653 14.7188 24.6022C14.6458 24.6391 14.5807 24.6901 14.5274 24.7522C14.474 24.8142 14.4334 24.8862 14.4079 24.964C14.3823 25.0418 14.3724 25.1238 14.3785 25.2054C14.3847 25.287 14.4069 25.3666 14.4438 25.4397C15.1438 26.8522 16.2626 27.6584 17.5001 27.6584C17.9917 27.6433 18.4732 27.5147 18.9068 27.2827C19.3405 27.0507 19.7147 26.7215 20.0001 26.3209C20.2855 26.7215 20.6596 27.0507 21.0933 27.2827C21.527 27.5147 22.0085 27.6433 22.5001 27.6584C23.7376 27.6584 24.8563 26.8522 25.5563 25.4397C25.5936 25.3667 25.6161 25.2871 25.6225 25.2054C25.6288 25.1237 25.6189 25.0415 25.5933 24.9636C25.5678 24.8858 25.527 24.8137 25.4735 24.7517C25.4199 24.6897 25.3546 24.6389 25.2813 24.6022ZM15.7382 18.4741C15.8333 18.6098 15.9785 18.7022 16.1418 18.7309C16.3051 18.7597 16.4731 18.7223 16.6088 18.6272C16.7446 18.532 16.837 18.3869 16.8657 18.2236C16.8944 18.0603 16.8571 17.8923 16.762 17.7566C16.5074 17.3492 16.1565 17.0109 15.7403 16.7713C15.324 16.5317 14.8551 16.3983 14.3751 16.3828C13.895 16.3983 13.4262 16.5317 13.0099 16.7713C12.5936 17.0109 12.2427 17.3492 11.9882 17.7566C11.8931 17.8923 11.8557 18.0603 11.8845 18.2236C11.9132 18.3869 12.0056 18.532 12.1413 18.6272C12.2771 18.7223 12.4451 18.7597 12.6084 18.7309C12.7716 18.7022 12.9168 18.6098 13.012 18.4741C13.1446 18.2281 13.3414 18.0226 13.5814 17.8794C13.8213 17.7361 14.0956 17.6605 14.3751 17.6605C14.6546 17.6605 14.9288 17.7361 15.1688 17.8794C15.4088 18.0226 15.6055 18.2281 15.7382 18.4741ZM25.6251 16.3828C25.145 16.3983 24.6762 16.5317 24.2599 16.7713C23.8436 17.0109 23.4927 17.3492 23.2382 17.7566C23.1911 17.8238 23.1577 17.8996 23.1399 17.9798C23.1221 18.0599 23.1202 18.1427 23.1345 18.2236C23.1487 18.3044 23.1787 18.3817 23.2228 18.4509C23.2668 18.5202 23.3241 18.5801 23.3913 18.6272C23.4585 18.6743 23.5344 18.7077 23.6145 18.7255C23.6947 18.7433 23.7775 18.7452 23.8584 18.7309C23.9392 18.7167 24.0165 18.6867 24.0857 18.6426C24.155 18.5986 24.2148 18.5413 24.262 18.4741C24.3946 18.2281 24.5914 18.0226 24.8314 17.8794C25.0713 17.7361 25.3456 17.6605 25.6251 17.6605C25.9046 17.6605 26.1788 17.7361 26.4188 17.8794C26.6588 18.0226 26.8555 18.2281 26.9882 18.4741C27.0353 18.5413 27.0952 18.5986 27.1645 18.6426C27.2337 18.6867 27.311 18.7167 27.3918 18.7309C27.4726 18.7452 27.5555 18.7433 27.6356 18.7255C27.7158 18.7077 27.7916 18.6743 27.8588 18.6272C27.926 18.5801 27.9833 18.5202 28.0274 18.4509C28.0715 18.3817 28.1015 18.3044 28.1157 18.2236C28.1299 18.1427 28.1281 18.0599 28.1103 17.9798C28.0925 17.8996 28.0591 17.8238 28.012 17.7566C27.7574 17.3492 27.4065 17.0109 26.9903 16.7713C26.574 16.5317 26.1051 16.3983 25.6251 16.3828Z" fill="#868686" stroke="#868686"/>
</svg>
