<svg width="40" height="40" viewBox="0 0 40 40" fill="none" xmlns="http://www.w3.org/2000/svg">
<g clip-path="url(#clip0_107_114)">
<path d="M38.4071 10.3559C38.405 7.88172 37.0426 5.63063 34.8516 4.48117L26.5655 0.134141C26.3976 0.0460237 26.2108 -7.69617e-06 26.0211 9.65148e-10L13.8802 9.65148e-10C13.6792 9.65148e-10 13.4816 0.0517188 13.3064 0.150078L4.9657 4.83328C2.87523 6.00703 1.57648 8.22547 1.57625 10.6229L1.57422 31.6426C1.57421 31.7965 1.60451 31.9489 1.6634 32.0911C1.72229 32.2332 1.80861 32.3624 1.91743 32.4713C2.02625 32.5801 2.15544 32.6664 2.29762 32.7253C2.4398 32.7842 2.59219 32.8145 2.74609 32.8145H8.19539C8.34038 33.3135 8.59599 33.7735 8.9432 34.1601V38.8281C8.9432 39.4753 9.46789 40 10.1151 40H29.7862C30.4334 40 30.958 39.4753 30.958 38.8281V34.2654C31.3551 33.8586 31.6459 33.3604 31.8047 32.8146H37.254C37.408 32.8146 37.5604 32.7843 37.7027 32.7253C37.8449 32.6664 37.9742 32.5799 38.083 32.471C38.1918 32.3621 38.2781 32.2328 38.3369 32.0905C38.3958 31.9482 38.426 31.7957 38.4259 31.6417L38.4071 10.3559ZM36.0634 10.358L36.0769 25.783H31.9419V17.0216C31.9419 16.3744 31.4172 15.8497 30.77 15.8497C30.1228 15.8497 29.5981 16.3744 29.5981 17.0216V31.852C29.5981 32.4676 29.0973 32.9684 28.4816 32.9684H21.1684V8.17281C23.9654 7.70609 26.2355 5.66234 26.9541 2.98477L33.7627 6.55664C35.1805 7.30039 36.062 8.75695 36.0634 10.358ZM18.7788 35.3122V37.6562H16.2047V35.3122H18.7788ZM19.9506 5.93164C17.6846 5.93164 15.7444 4.41109 15.2032 2.34375H24.6995C24.1604 4.41422 22.2269 5.93164 19.9506 5.93164ZM21.1225 35.3122H23.6966V37.6562H21.1225V35.3122ZM6.1132 6.87688L12.9606 3.03211C13.7039 5.71055 16.0126 7.75102 18.8248 8.18727V32.9684H11.5184C10.9027 32.9684 10.4019 32.4675 10.4019 31.8519V17.0216C10.4019 16.3744 9.87719 15.8497 9.23 15.8497C8.58281 15.8497 8.05812 16.3744 8.05812 17.0216V25.783H3.91852L3.92 10.6231C3.92016 9.07187 4.76055 7.63641 6.1132 6.87688ZM3.91828 28.1268H8.05812V30.4709H3.91805L3.91828 28.1268ZM11.287 35.3036C11.3635 35.3087 13.861 35.3122 13.861 35.3122V37.6562H11.287V35.3036ZM26.0402 37.6562V35.3122C26.0402 35.3122 28.5702 35.3105 28.6142 35.3088V37.6562H26.0402ZM31.9419 30.4709V28.1268H36.0789L36.0809 30.4709H31.9419Z" fill="#868686"/>
<path d="M24.6387 11.6875C23.9915 11.6875 23.4668 12.2122 23.4668 12.8594C23.4668 13.5066 23.9915 14.0312 24.6387 14.0312H28.5943C29.2415 14.0312 29.7662 13.5066 29.7662 12.8594C29.7662 12.2122 29.2415 11.6875 28.5943 11.6875H24.6387Z" fill="#868686"/>
</g>
<defs>
<clipPath id="clip0_107_114">
<rect width="40" height="40" fill="white"/>
</clipPath>
</defs>
</svg>
