<svg width="40" height="40" viewBox="0 0 40 40" fill="none" xmlns="http://www.w3.org/2000/svg">
<g clip-path="url(#clip0_107_119)">
<path d="M12.3598 11.4824C11.7588 10.8813 10.7335 11.1011 10.4341 11.8995L0.490928 38.4144C0.138684 39.3537 1.05855 40.2761 1.99959 39.9231L28.5145 29.98C29.3092 29.6821 29.5357 28.6583 28.9316 28.0543L12.3598 11.4824ZM11.9894 14.4264L16.8048 19.2418C17.138 23.2463 18.6215 27.096 21.0405 30.2797L16.0277 32.1595C12.2783 28.2593 10.3648 22.8063 10.8744 17.3995L11.9894 14.4264ZM8.83003 34.8586C7.67432 33.5461 6.70929 32.0774 5.96341 30.4956L8.79324 22.9493C9.49609 26.8091 11.2297 30.262 13.6611 33.0469L8.83003 34.8586ZM4.87066 33.4097C5.361 34.2198 5.90581 34.9957 6.50135 35.7319L3.59051 36.8235L4.87066 33.4097ZM23.3438 29.416C21.5864 27.2778 20.325 24.7628 19.6481 22.0851L25.9876 28.4246L23.3438 29.416ZM27.6419 21.8866C28.0995 22.3442 28.8414 22.3442 29.299 21.8866C33.7075 17.4781 38.0001 18.8411 38.043 18.8553C38.657 19.0599 39.3206 18.7281 39.5253 18.1142C39.73 17.5004 39.3981 16.8366 38.7842 16.6319C38.5531 16.555 33.0633 14.808 27.6419 20.2294C27.1842 20.687 27.1842 21.4291 27.6419 21.8866ZM18.5273 12.7721C18.9849 13.2297 19.7269 13.2298 20.1845 12.7721C25.6058 7.35077 23.859 1.86094 23.782 1.62986C23.5773 1.01592 22.9136 0.683982 22.2998 0.888735C21.6858 1.09341 21.354 1.75704 21.5586 2.37099C21.5729 2.41388 22.9358 6.70651 18.5273 11.115C18.0697 11.5725 18.0697 12.3145 18.5273 12.7721ZM22.6703 15.2579C22.2127 15.7156 22.2127 16.4575 22.6703 16.9151C23.1237 17.3686 23.8604 17.3745 24.3205 16.9221C24.9259 16.6204 26.8048 17.7518 27.849 16.7079C28.882 15.6749 27.7845 13.8341 28.0586 13.189C28.7046 12.9142 30.5447 14.0122 31.5776 12.9793C32.6109 11.9463 31.5133 10.1055 31.7874 9.46033C32.4343 9.18542 34.2733 10.2836 35.3063 9.25065C36.3395 8.21759 35.2419 6.37684 35.5161 5.73165C36.1592 5.45815 38.0028 6.55386 39.0352 5.52189C40.0789 4.47797 38.9497 2.59566 39.2491 1.99343C39.6999 1.53534 39.6975 0.798584 39.2422 0.343221C38.7846 -0.114407 38.0426 -0.114407 37.585 0.343221C36.6614 1.26684 36.8421 2.57074 37.0161 3.50295C36.0839 3.32898 34.78 3.14829 33.8564 4.07182C32.9328 4.99544 33.1135 6.29935 33.2875 7.23155C32.3552 7.05766 31.0513 6.87681 30.1277 7.8005C29.2041 8.72412 29.3849 10.028 29.5589 10.9602C28.6265 10.7863 27.3227 10.6055 26.3991 11.5291C25.4755 12.4527 25.6562 13.7566 25.8302 14.6888C24.8979 14.515 23.5937 14.3343 22.6703 15.2579ZM29.299 5.31479C29.7567 4.85717 29.7567 4.11526 29.299 3.65763C28.8414 3.2 28.0995 3.2 27.6419 3.65763C27.1842 4.11526 27.1842 4.85717 27.6419 5.31479C28.0994 5.77242 28.8414 5.77242 29.299 5.31479Z" fill="#868686"/>
<path d="M36.7558 13.9452C37.403 13.9452 37.9276 13.4205 37.9276 12.7734C37.9276 12.1262 37.403 11.6016 36.7558 11.6016C36.1086 11.6016 35.584 12.1262 35.584 12.7734C35.584 13.4205 36.1086 13.9452 36.7558 13.9452Z" fill="#868686"/>
<path d="M34.2714 23.541C33.8138 23.9987 33.8138 24.7406 34.2714 25.1982C34.729 25.6558 35.471 25.6558 35.9286 25.1982C36.3862 24.7406 36.3862 23.9987 35.9286 23.541C35.471 23.0834 34.729 23.0834 34.2714 23.541ZM17.6996 6.96914C18.1572 6.51151 18.1572 5.7696 17.6996 5.31197C17.242 4.85434 16.5001 4.85434 16.0424 5.31197C15.5848 5.76952 15.5848 6.51151 16.0424 6.96914C16.5001 7.42677 17.2421 7.42677 17.6996 6.96914Z" fill="#868686"/>
</g>
<defs>
<clipPath id="clip0_107_119">
<rect width="40" height="40" fill="white"/>
</clipPath>
</defs>
</svg>
