<svg width="40" height="40" viewBox="0 0 40 40" fill="none" xmlns="http://www.w3.org/2000/svg">
<g clip-path="url(#clip0_112_134)">
<path d="M39.5931 14.5728C38.1954 10.2718 33.5591 7.90977 29.2584 9.30695C28.6903 9.49156 28.1152 9.74688 27.5467 10.0632C27.672 9.425 27.737 8.79898 27.737 8.20164C27.737 3.63547 24.5818 0 20.0822 0C15.576 0 12.263 3.64352 12.263 8.20164C12.263 8.79891 12.3281 9.42492 12.4533 10.0632C11.8849 9.74695 11.3097 9.49156 10.7416 9.30695C6.4411 7.90953 1.80454 10.2718 0.406962 14.5728C-1.01038 18.9352 1.40118 23.7932 5.67282 25.1812C6.24095 25.3659 6.85626 25.4973 7.50204 25.5755C7.02556 26.0184 6.60509 26.4866 6.25392 26.9698C3.59571 30.6285 4.4097 35.7677 8.06829 38.4259C11.7252 41.0829 16.4749 40.282 19.1417 36.6114C19.4929 36.1281 19.8081 35.5834 20.0821 34.9934C20.3561 35.5835 20.6713 36.1281 21.0225 36.6114C23.6929 40.287 28.2825 41.0772 31.9316 38.4259C35.5902 35.7677 36.4042 30.6284 33.746 26.9698C33.395 26.4865 32.9743 26.0184 32.4979 25.5755C33.1435 25.4973 33.7592 25.3657 34.3274 25.1812C38.5989 23.7933 41.0104 18.9352 39.5931 14.5728ZM20.0822 2.34336C23.1599 2.34336 25.3937 4.80711 25.3937 8.20164C25.3937 9.72945 24.7958 11.6131 23.7944 13.2405C23.6772 13.4304 23.617 13.65 23.6208 13.8732L22.4008 15.9848C22.0359 15.8269 21.6367 15.7045 21.2382 15.6233V10.8188C21.2382 10.1718 20.7292 9.64719 20.0822 9.64719C19.4352 9.64719 18.9106 10.1718 18.9106 10.8188V15.6234C18.5077 15.7059 18.1146 15.8309 17.7381 15.9964L16.376 13.7655C16.362 13.5794 16.3035 13.3993 16.2056 13.2405C15.2042 11.6131 14.6063 9.72945 14.6063 8.20164C14.6063 4.86187 16.9604 2.34336 20.0822 2.34336ZM6.39688 22.9527C3.38602 21.9743 1.62837 18.3969 2.63556 15.297C3.63384 12.2248 6.94509 10.5375 10.0175 11.5355C11.2788 11.9454 12.6559 12.8673 13.8075 14.0555L15.8196 17.3512C15.4986 17.6919 15.2194 18.0696 14.9878 18.4765L10.4154 16.9909C9.79946 16.7908 9.13892 17.1277 8.93899 17.743C8.73892 18.3585 9.07587 19.0195 9.69118 19.2195L14.2619 20.7046C14.2089 21.1749 14.2125 21.597 14.2648 22.0455L11.3382 23.0666C9.58423 23.4348 7.76032 23.3956 6.39688 22.9527ZM18.9104 30.2537C18.7589 32.1468 18.1382 34.0062 17.2461 35.2341C15.3394 37.8583 12.0532 38.4246 9.44571 36.5301C6.83243 34.6313 6.2511 30.9605 8.14978 28.3471C9.7011 26.2117 12.3957 25.2415 12.6001 25.1083L14.9995 24.2712C15.2146 24.6464 15.4704 24.9969 15.7623 25.3161L12.9361 29.2061C12.5557 29.7296 12.6718 30.4623 13.1952 30.8427C13.7184 31.2229 14.4513 31.1071 14.8318 30.5835L17.6572 26.6945C18.058 26.8782 18.4784 27.0156 18.9103 27.1041L18.9104 30.2537ZM20.0822 24.8787C18.1441 24.8787 16.5672 23.302 16.5672 21.3637C16.5672 19.4255 18.144 17.8488 20.0822 17.8488C22.0203 17.8488 23.5972 19.4255 23.5972 21.3637C23.5972 23.302 22.0203 24.8787 20.0822 24.8787ZM30.5542 36.5301C27.8615 38.4866 24.7627 37.7726 22.9182 35.2341C22.0261 34.0062 21.3898 32.1468 21.2381 30.2537V27.1042C21.6756 27.015 22.1105 26.8757 22.5069 26.6946L25.3323 30.5836C25.7127 31.1071 26.4454 31.223 26.9688 30.8427C27.4924 30.4623 27.6084 29.7297 27.228 29.2062L24.4019 25.3162C24.6913 24.9997 24.9452 24.6525 25.1592 24.2808L27.3431 25.0676C27.6124 25.2672 30.2762 26.1805 31.8501 28.3471C33.749 30.9605 33.1676 34.6313 30.5542 36.5301ZM28.7509 23.0839L25.8981 22.0561C25.9527 21.5952 25.9548 21.1703 25.9024 20.7045L30.4731 19.2194C31.0884 19.0194 31.4252 18.3584 31.2252 17.743C31.0252 17.1275 30.3642 16.7907 29.7488 16.9908L25.1764 18.4764C24.9408 18.0625 24.6559 17.6788 24.3278 17.3335L26.2629 13.9845C27.4001 12.8308 28.7466 11.9371 29.9824 11.5355C33.0544 10.5375 36.366 12.2247 37.3644 15.2968C38.3716 18.3968 36.6139 21.9742 33.6031 22.9526H33.6031C32.2627 23.3881 30.4774 23.4323 28.7509 23.0839Z" fill="#868686"/>
</g>
<defs>
<clipPath id="clip0_112_134">
<rect width="40" height="40" fill="white"/>
</clipPath>
</defs>
</svg>
