<svg width="40" height="40" viewBox="0 0 40 40" fill="none" xmlns="http://www.w3.org/2000/svg">
<g clip-path="url(#clip0_107_84)">
<path d="M36.4921 22.3438C37.7865 22.3438 38.8358 23.3931 38.8358 24.6875C38.8358 25.982 37.7865 27.0313 36.4921 27.0313H34.0702C31.4814 27.0313 31.9715 29.375 29.3827 29.375C26.7939 29.375 27.2841 27.0313 24.6952 27.0313C22.1064 27.0313 22.5966 29.375 20.0078 29.375C17.4189 29.375 17.9091 27.0313 15.3203 27.0313C12.7314 27.0313 13.2216 29.375 10.6328 29.375C8.04396 29.375 8.45599 27.0313 5.86717 27.0313H3.52343C2.22906 27.0313 1.17969 25.982 1.17969 24.6875C1.17969 23.3931 2.22906 22.3438 3.52343 22.3438M36.4921 22.3438H3.52343M36.4921 22.3438C37.7865 22.3438 38.8358 21.2945 38.8358 20C38.8358 18.7056 37.7865 17.6563 36.4921 17.6563H3.52343C2.22906 17.6563 1.17969 18.7056 1.17969 20C1.17969 21.2945 2.22906 22.3438 3.52343 22.3438" stroke="#868686" stroke-width="2.5" stroke-miterlimit="10" stroke-linecap="round" stroke-linejoin="round"/>
<path d="M3.52344 17.6562C3.52344 7.30097 10.9469 3.59379 20.0078 3.59379C29.0686 3.59379 36.4921 7.30097 36.4921 17.6562" stroke="#868686" stroke-width="2.5" stroke-miterlimit="10" stroke-linecap="round" stroke-linejoin="round"/>
<path d="M14.1484 12.9688C14.1484 13.6159 13.6237 14.1406 12.9766 14.1406C12.3294 14.1406 11.8047 13.6159 11.8047 12.9688C11.8047 12.3216 12.3294 11.7969 12.9766 11.7969C13.6237 11.7969 14.1484 12.3216 14.1484 12.9688Z" fill="#868686"/>
<path d="M28.2109 12.9688C28.2109 13.6159 27.6862 14.1406 27.0391 14.1406C26.3919 14.1406 25.8672 13.6159 25.8672 12.9688C25.8672 12.3216 26.3919 11.7969 27.0391 11.7969C27.6862 11.7969 28.2109 12.3216 28.2109 12.9688Z" fill="#868686"/>
<path d="M23.5234 10.625C23.5234 11.2722 22.9987 11.7969 22.3516 11.7969C21.7044 11.7969 21.1797 11.2722 21.1797 10.625C21.1797 9.97782 21.7044 9.45313 22.3516 9.45313C22.9987 9.45313 23.5234 9.97782 23.5234 10.625Z" fill="#868686"/>
<path d="M18.8359 8.28125C18.8359 8.92844 18.3112 9.45312 17.6641 9.45312C17.0169 9.45312 16.4922 8.92844 16.4922 8.28125C16.4922 7.63407 17.0169 7.10938 17.6641 7.10938C18.3112 7.10938 18.8359 7.63407 18.8359 8.28125Z" fill="#868686"/>
<path d="M36.4921 27.0313C36.4921 32.2089 32.2166 36.4062 27.039 36.4062H12.9765C7.79889 36.4062 3.52344 32.2089 3.52344 27.0313" stroke="#868686" stroke-width="2.5" stroke-miterlimit="10" stroke-linecap="round" stroke-linejoin="round"/>
</g>
<defs>
<clipPath id="clip0_107_84">
<rect width="40" height="40" fill="white"/>
</clipPath>
</defs>
</svg>
