<svg width="40" height="40" viewBox="0 0 40 40" fill="none" xmlns="http://www.w3.org/2000/svg">
<g clip-path="url(#clip0_112_138)">
<path d="M20.8022 18.1953V4.09996C20.8022 2.5152 19.5053 1.18489 17.9208 1.21224C16.3819 1.23888 15.1387 2.49848 15.1387 4.04356V18.1317" stroke="#868686" stroke-width="2.5" stroke-miterlimit="10" stroke-linecap="round"/>
<path d="M9.50381 18.1944V11.8109C9.50381 10.6005 8.51913 9.61579 7.30249 9.61579C6.09203 9.61579 5.10742 10.6005 5.10742 11.8109L5.10867 28.8678C5.71578 37.6375 11.0949 38.8203 16.2772 38.8203C20.5707 38.8203 24.4272 36.6905 26.3288 33.2862C26.5733 32.8911 27.235 31.8506 28.0196 30.6183C29.1326 28.8697 30.1431 27.3048 30.8534 26.194C31.8096 24.6987 32.8287 23.245 33.9135 21.8404C34.1818 21.4932 34.4014 21.2171 34.5104 21.0982C34.8299 20.7496 35.0405 20.3154 35.1033 19.8468C35.3282 18.1674 33.3406 16.9659 31.7395 17.5199C31.5267 17.5929 31.3261 17.6975 31.1446 17.8303C30.2645 18.4777 27.723 21.1068 26.7308 22.8408L26.7245 22.8517C26.4745 23.2801 25.8147 23.0959 25.8105 22.5999L25.8101 22.5573V8.72501C25.8101 7.32103 24.6612 6.1426 23.2574 6.16682C21.8942 6.19033 20.7928 7.30627 20.7928 8.67509L20.8025 18.1944" stroke="#868686" stroke-width="2.5" stroke-miterlimit="10" stroke-linecap="round"/>
<path d="M15.139 18.1317L15.1258 7.56402C15.1258 6.06543 13.953 4.79715 12.4551 4.75278C10.8987 4.70668 9.53109 5.95926 9.53109 7.5055L9.50391 18.1953" stroke="#868686" stroke-width="2.5" stroke-miterlimit="10" stroke-linecap="round"/>
</g>
<defs>
<clipPath id="clip0_112_138">
<rect width="40" height="40" fill="white"/>
</clipPath>
</defs>
</svg>
