<svg width="40" height="40" viewBox="0 0 40 40" fill="none" xmlns="http://www.w3.org/2000/svg">
<path d="M20 35.5871C19.4304 35.5871 18.8815 35.3808 18.4536 35.006C16.8377 33.5931 15.2798 32.2653 13.9053 31.094L13.8983 31.0879C9.86842 27.6538 6.3885 24.6881 3.96726 21.7666C1.2607 18.5007 0 15.404 0 12.0211C0 8.73444 1.12703 5.70218 3.1732 3.48265C5.24382 1.23687 8.08498 0 11.1743 0C13.4833 0 15.5978 0.729999 17.4591 2.16953C18.3984 2.89609 19.2498 3.78538 20 4.82265C20.7503 3.78538 21.6015 2.89609 22.5411 2.16953C24.4025 0.729999 26.517 0 28.826 0C31.9149 0 34.7564 1.23687 36.827 3.48265C38.8732 5.70218 39.9999 8.73444 39.9999 12.0211C39.9999 15.404 38.7395 18.5007 36.033 21.7663C33.6117 24.6881 30.132 27.6535 26.1028 31.0873C24.7259 32.2604 23.1656 33.5903 21.546 35.0067C21.118 35.381 20.5686 35.5873 20 35.5871ZM11.1743 2.34312C8.74725 2.34312 6.51764 3.31179 4.89562 5.07077C3.24952 6.85639 2.34281 9.32467 2.34281 12.0211C2.34281 14.8663 3.40023 17.4108 5.77116 20.2716C8.06272 23.0368 11.4712 25.9414 15.4178 29.3048L15.425 29.3109C16.8047 30.4867 18.3688 31.8197 19.9966 33.2431C21.6342 31.817 23.2007 30.4818 24.5831 29.3042C28.5293 25.9408 31.9375 23.0368 34.2291 20.2716C36.5997 17.4108 37.6571 14.8663 37.6571 12.0211C37.6571 9.32459 36.7504 6.85631 35.1043 5.07077C33.4826 3.31179 31.2527 2.34312 28.826 2.34312C27.048 2.34312 25.4156 2.90835 23.9742 4.0228C22.6898 5.01647 21.795 6.27257 21.2703 7.15147C21.0007 7.60342 20.5258 7.87319 20 7.87319C19.4741 7.87319 18.9993 7.60342 18.7295 7.15147C18.2053 6.27257 17.3104 5.01647 16.0256 4.0228C14.5843 2.90835 12.9519 2.34312 11.1743 2.34312Z" fill="#868686"/>
</svg>
