<svg width="40" height="40" viewBox="0 0 40 40" fill="none" xmlns="http://www.w3.org/2000/svg">
<g clip-path="url(#clip0_107_52)">
<path d="M20 0C8.97195 0 0 8.97195 0 20C0 31.028 8.97195 40 20 40C31.028 40 40 31.028 40 20C40 8.97195 31.028 0 20 0ZM20 37.5C10.3505 37.5 2.5 29.6495 2.5 20C2.5 10.3505 10.3505 2.5 20 2.5C29.6495 2.5 37.5 10.3505 37.5 20C37.5 29.6495 29.6495 37.5 20 37.5ZM30.5356 26.0938C28.3502 29.8785 24.4118 32.1381 20.0003 32.1382C15.5887 32.1383 11.65 29.8787 9.46445 26.0938C9.11922 25.4959 9.32398 24.7314 9.9218 24.3863C10.5198 24.041 11.2842 24.2459 11.6293 24.8436C13.363 27.8459 16.4923 29.6383 20.0002 29.6382C23.508 29.6381 26.6371 27.8458 28.3706 24.8436C28.7158 24.2457 29.4803 24.0409 30.0781 24.3862C30.676 24.7314 30.8808 25.4959 30.5356 26.0938ZM9.27172 15.0737C9.27172 13.6946 10.3937 12.5726 11.7728 12.5726C13.152 12.5726 14.2739 13.6945 14.2739 15.0737C14.2739 16.4528 13.152 17.5748 11.7728 17.5748C10.3937 17.5748 9.27172 16.4528 9.27172 15.0737ZM30.7284 15.0737C30.7284 16.4527 29.6064 17.5748 28.2273 17.5748C26.8481 17.5748 25.7262 16.4528 25.7262 15.0737C25.7262 13.6945 26.8481 12.5726 28.2273 12.5726C29.6063 12.5727 30.7284 13.6946 30.7284 15.0737Z" fill="#868686"/>
</g>
<defs>
<clipPath id="clip0_107_52">
<rect width="40" height="40" fill="white"/>
</clipPath>
</defs>
</svg>
