<svg width="40" height="40" viewBox="0 0 40 40" fill="none" xmlns="http://www.w3.org/2000/svg">
<path d="M31.8712 8.12548C30.14 6.40292 28.0524 5.08052 25.7554 4.25125C23.4583 3.42198 21.0074 3.10599 18.5752 3.32548C18.0472 3.32548 17.5192 3.43748 16.9752 3.53348C13.6192 4.15051 10.5297 5.77199 8.11551 8.18335C5.70129 10.5947 4.07616 13.6823 3.45516 17.0375C3.35916 17.5655 3.29516 18.1095 3.24716 18.6375C3.06168 20.9508 3.35702 23.2774 4.11461 25.471C4.87219 27.6646 6.07562 29.6776 7.64915 31.3834C9.22268 33.0892 11.1323 34.4508 13.2577 35.3826C15.3831 36.3143 17.6784 36.7961 19.9992 36.7975C20.4735 36.8214 20.9488 36.8214 21.4232 36.7975C21.9512 36.7975 22.4792 36.6855 23.0232 36.5895C24.1568 36.3822 25.2664 36.0605 26.3352 35.6295C28.9498 34.5588 31.2542 32.8496 33.0375 30.6582C34.8208 28.4668 36.0261 25.8631 36.5432 23.0855C36.6392 22.5575 36.7032 22.0135 36.7512 21.4855C36.97 19.0368 36.6461 16.5699 35.8026 14.2607C34.9591 11.9515 33.6168 9.85665 31.8712 8.12548ZM9.24716 30.7495C7.6733 29.1795 6.46016 27.2857 5.69203 25.1996C4.92391 23.1135 4.61923 20.8852 4.79916 18.6695C9.03804 19.0906 12.9981 20.9744 15.9992 23.9975C19.0135 26.9994 20.8816 30.962 21.2792 35.1975C19.0713 35.3703 16.8522 35.0621 14.7749 34.2942C12.6977 33.5263 10.8117 32.3169 9.24716 30.7495ZM30.7512 30.7495C28.6061 32.8833 25.8787 34.336 22.9112 34.9255C22.4653 30.3471 20.4335 26.0685 17.1672 22.8295C13.9211 19.5731 9.64625 17.5431 5.07116 17.0855C5.66063 14.1179 7.11339 11.3905 9.24716 9.24548C11.3858 7.1031 14.116 5.64886 17.0872 5.06948C17.533 9.64784 19.5648 13.9265 22.8312 17.1655C26.0788 20.4197 30.3528 22.4493 34.9272 22.9095C34.3377 25.8771 32.8849 28.6045 30.7512 30.7495ZM23.9992 15.9975C20.9848 12.9956 19.1167 9.03299 18.7192 4.79748H20.0472C22.1582 4.79345 24.247 5.22967 26.18 6.07831C28.113 6.92694 29.8478 8.16933 31.2736 9.72616C32.6995 11.283 33.785 13.12 34.4609 15.12C35.1368 17.1199 35.3882 19.2389 35.1992 21.3415C30.9607 20.9069 27.0034 19.0187 23.9992 15.9975Z" fill="#868686" stroke="#868686"/>
</svg>
