<svg width="40" height="40" viewBox="0 0 40 40" fill="none" xmlns="http://www.w3.org/2000/svg">
<g clip-path="url(#clip0_112_175)">
<path d="M39.2485 13.8537L20.4971 5.72807C20.3402 5.66008 20.171 5.625 20 5.625C19.829 5.625 19.6598 5.66008 19.5029 5.72807L0.75155 13.8537C-0.250399 14.2878 -0.250634 15.7135 0.75155 16.1477L7.49908 19.0716V26.8765C7.49908 31.0825 12.9901 34.3771 20 34.3771C27.0099 34.3771 32.5009 31.0825 32.5009 26.8765V19.0716L33.751 18.5299V31.8769C33.751 32.5673 34.3108 33.127 35.0011 33.127C35.6915 33.127 36.2512 32.5673 36.2512 31.8769V17.4465L39.2485 16.1478C40.2504 15.7136 40.2506 14.2879 39.2485 13.8537ZM20 8.23748L35.6073 15.0007L34.3695 15.5371L20.155 13.7602C19.4699 13.6751 18.8452 14.1606 18.7595 14.8456C18.6739 15.5307 19.1599 16.1555 19.8449 16.2411L29.8568 17.4926L20 21.7639L4.39268 15.0006L20 8.23748ZM30.0008 26.8766C30.0008 28.0544 29.034 29.2671 27.3484 30.2035C23.334 32.4337 16.6777 32.4403 12.6516 30.2035C10.966 29.2671 9.99927 28.0544 9.99927 26.8766V20.1551L19.5029 24.2734C19.6598 24.3413 19.829 24.3764 20 24.3764C20.171 24.3764 20.3402 24.3413 20.4971 24.2734L30.0008 20.1551V26.8766Z" fill="#868686"/>
</g>
<defs>
<clipPath id="clip0_112_175">
<rect width="40" height="40" fill="white"/>
</clipPath>
</defs>
</svg>
