<svg width="40" height="40" viewBox="0 0 40 40" fill="none" xmlns="http://www.w3.org/2000/svg">
<g clip-path="url(#clip0_112_156)">
<path d="M28.2218 21.592L25.8007 19.1709L32.1992 12.7724L33.0279 13.601C33.5644 14.1375 34.4674 14.0318 34.8613 13.3753L39.833 5.08913C39.9675 4.86505 40.0232 4.60244 39.9912 4.34306C39.9593 4.08368 39.8416 3.84242 39.6567 3.65765L36.3422 0.343214C36.1574 0.158432 35.9162 0.0407191 35.6568 0.0087845C35.3974 -0.0231501 35.1348 0.0325266 34.9107 0.166965L26.6246 5.13866C25.9707 5.53101 25.8608 6.43397 26.3989 6.97209L27.2276 7.80069L20.829 14.1992L18.4079 11.7781C19.2601 8.59389 18.3909 5.13171 15.9805 2.72125C12.9654 -0.293736 8.45194 -0.770922 4.92219 1.1304C4.76136 1.21703 4.62301 1.34005 4.51819 1.48966C4.41336 1.63926 4.34496 1.8113 4.31845 1.99205C4.29194 2.17279 4.30805 2.35722 4.36549 2.53063C4.42294 2.70404 4.52012 2.86161 4.6493 2.99078L9.04709 7.38858C9.50405 7.84553 9.50405 8.58896 9.04709 9.04576C8.59014 9.50271 7.84679 9.50279 7.38983 9.04576L2.99204 4.64788C2.86289 4.51868 2.70531 4.42146 2.5319 4.364C2.35849 4.30654 2.17404 4.29042 1.99329 4.31693C1.81254 4.34344 1.64049 4.41186 1.49088 4.5167C1.34128 4.62155 1.21826 4.75992 1.13166 4.92077C-0.762478 8.43732 -0.302635 12.9538 2.72267 15.979C5.12773 18.3841 8.58811 19.2606 11.7795 18.4065L12.5431 19.17L1.71884 29.9945C-0.572244 32.2856 -0.57365 35.9885 1.71884 38.281C4.00344 40.5656 7.72069 40.5657 10.0054 38.281L20.8295 27.4565L21.5933 28.2203C20.7411 31.4045 21.6103 34.8667 24.0207 37.2771C27.0358 40.2922 31.5493 40.7694 35.079 38.8681C35.2399 38.7814 35.3782 38.6584 35.483 38.5088C35.5879 38.3592 35.6562 38.1872 35.6828 38.0064C35.7093 37.8257 35.6932 37.6412 35.6357 37.4678C35.5783 37.2944 35.4811 37.1368 35.3519 37.0077L30.9541 32.6099C30.4972 32.1529 30.4972 31.4095 30.9541 30.9527C31.4111 30.4958 32.1545 30.4958 32.6114 30.9527L37.0092 35.3505C37.1384 35.4796 37.2959 35.5768 37.4693 35.6342C37.6427 35.6917 37.8272 35.7078 38.0079 35.6812C38.1886 35.6547 38.3607 35.5863 38.5103 35.4815C38.6599 35.3767 38.7829 35.2384 38.8696 35.0776C40.7637 31.5611 40.3039 27.0446 37.2786 24.0194C34.8736 21.6144 31.4132 20.7378 28.2218 21.592ZM35.332 2.64742L37.3525 4.66788L33.6238 10.8824L29.1174 6.37616L35.332 2.64742ZM28.8848 9.45794L30.5419 11.1151L24.1434 17.5136L22.4862 15.8564L28.8848 9.45794ZM8.34811 36.6239C6.97734 37.9947 4.74688 37.9947 3.37602 36.6239C2.00064 35.2485 1.99978 33.0281 3.37602 31.6518L14.2002 20.8274L19.1723 25.7994L8.34811 36.6239ZM37.4164 32.4432L34.2686 29.2955C32.898 27.925 30.6677 27.9249 29.2969 29.2955C27.9263 30.6661 27.9263 32.8964 29.2969 34.2672L32.4447 37.4149C30.0531 38.0679 27.4826 37.4245 25.678 35.62C23.7681 33.7101 23.1196 30.8308 24.0259 28.2847C24.1003 28.0759 24.1139 27.8502 24.0651 27.634C24.0164 27.4178 23.9073 27.2198 23.7506 27.0631L12.9368 16.2493C12.78 16.0926 12.5821 15.9835 12.3659 15.9348C12.1496 15.886 11.924 15.8996 11.7152 15.9739C9.16897 16.8803 6.28976 16.2317 4.37985 14.3218C2.57532 12.5173 1.93197 9.94685 2.58493 7.5553L5.73265 10.703C7.10327 12.0736 9.33358 12.0736 10.7044 10.703C12.075 9.3324 12.075 7.10209 10.7044 5.73132L7.55663 2.5836C9.94811 1.93047 12.5187 2.57399 14.3232 4.37851C16.2332 6.28843 16.8817 9.16771 15.9753 11.7139C15.901 11.9227 15.8874 12.1483 15.9362 12.3645C15.9849 12.5808 16.094 12.7787 16.2507 12.9354L27.0644 23.7491C27.2212 23.9059 27.4191 24.0149 27.6354 24.0637C27.8516 24.1124 28.0772 24.0988 28.286 24.0245C30.8321 23.1182 33.7114 23.7668 35.6214 25.6766C37.426 27.4813 38.0693 30.0517 37.4164 32.4432Z" fill="#868686"/>
<path d="M15.2373 24.9994C14.7797 24.5419 14.0378 24.5419 13.5801 24.9994L6.41936 32.1604C5.96178 32.6181 5.96178 33.36 6.41936 33.8176C6.87709 34.2753 7.61889 34.2752 8.07654 33.8176L15.2372 26.6566C15.6948 26.199 15.6948 25.457 15.2373 24.9994Z" fill="#868686"/>
</g>
<defs>
<clipPath id="clip0_112_156">
<rect width="40" height="40" fill="white"/>
</clipPath>
</defs>
</svg>
