<svg width="40" height="40" viewBox="0 0 40 40" fill="none" xmlns="http://www.w3.org/2000/svg">
<path d="M34.375 11.25H33.75V10C33.75 6.55375 30.9462 3.75 27.5 3.75H12.5C9.05375 3.75 6.25 6.55375 6.25 10V11.25H5.625C4.7965 11.251 4.00222 11.5806 3.41639 12.1664C2.83055 12.7522 2.50099 13.5465 2.5 14.375V17.5C2.5 17.8315 2.6317 18.1495 2.86612 18.3839C3.10054 18.6183 3.41848 18.75 3.75 18.75C4.08152 18.75 4.39946 18.6183 4.63388 18.3839C4.8683 18.1495 5 17.8315 5 17.5V14.375C5 14.2092 5.06585 14.0503 5.18306 13.9331C5.30027 13.8158 5.45924 13.75 5.625 13.75H6.25V26.25C6.25 28.2837 7.24125 30.0763 8.75 31.2175V33.75C8.75 35.1288 9.87125 36.25 11.25 36.25H13.75C15.1288 36.25 16.25 35.1288 16.25 33.75V32.5H23.75V33.75C23.75 35.1288 24.8712 36.25 26.25 36.25H28.75C30.1288 36.25 31.25 35.1288 31.25 33.75V31.2175C32.7588 30.075 33.75 28.2825 33.75 26.25V13.75H34.375C34.5408 13.75 34.6997 13.8158 34.8169 13.9331C34.9342 14.0503 35 14.2092 35 14.375V17.5C35 17.8315 35.1317 18.1495 35.3661 18.3839C35.6005 18.6183 35.9185 18.75 36.25 18.75C36.5815 18.75 36.8995 18.6183 37.1339 18.3839C37.3683 18.1495 37.5 17.8315 37.5 17.5V14.375C37.5 12.6525 36.0987 11.25 34.375 11.25ZM8.75 11.25H31.25V20.4562C30.1162 20.974 28.8852 21.2445 27.6388 21.25H12.3612C11.1148 21.2444 9.88388 20.9738 8.75 20.4562V11.25ZM12.5 6.25H27.5C29.1275 6.25 30.5025 7.29875 31.02 8.75H8.98C9.23698 8.02096 9.71325 7.3893 10.3435 6.9417C10.9737 6.49409 11.727 6.25248 12.5 6.25ZM13.75 33.75H11.25V32.3738C11.6538 32.4563 12.0725 32.5 12.5 32.5H13.75V33.75ZM28.75 33.75H26.25V32.5H27.5C27.9275 32.5 28.3462 32.4563 28.75 32.3738V33.75ZM27.5 30H12.5C10.4325 30 8.75 28.3175 8.75 26.25V23.1425C9.9125 23.535 11.1362 23.75 12.3612 23.75H27.64C28.865 23.75 30.0887 23.535 31.2512 23.1425V26.25C31.2512 28.3175 29.5675 30 27.5 30Z" fill="#868686"/>
<path d="M12.5 27.5C13.1904 27.5 13.75 26.9404 13.75 26.25C13.75 25.5596 13.1904 25 12.5 25C11.8096 25 11.25 25.5596 11.25 26.25C11.25 26.9404 11.8096 27.5 12.5 27.5Z" fill="#868686"/>
<path d="M27.5 27.5C28.1904 27.5 28.75 26.9404 28.75 26.25C28.75 25.5596 28.1904 25 27.5 25C26.8096 25 26.25 25.5596 26.25 26.25C26.25 26.9404 26.8096 27.5 27.5 27.5Z" fill="#868686"/>
</svg>
