<svg width="40" height="40" viewBox="0 0 40 40" fill="none" xmlns="http://www.w3.org/2000/svg">
<g clip-path="url(#clip0_112_179)">
<path d="M38.4834 14.2696L33.8703 13.5896C33.4736 12.6863 32.9703 11.7997 32.3453 10.8997L34.1002 6.40653C34.4252 5.55656 34.0902 4.61996 33.3253 4.19162L26.7005 0.25514C25.9322 -0.211481 24.934 -0.0232078 24.3773 0.698481L21.5024 4.47669C20.3891 4.36005 19.6091 4.36005 18.4959 4.47669L15.6194 0.693481C15.076 -0.0114896 14.1111 -0.203122 13.3061 0.25014L6.69309 4.17998C5.93976 4.6016 5.59649 5.54992 5.90148 6.41153L7.65305 10.893C7.04807 11.7513 6.53809 12.6546 6.12975 13.5879L1.53158 14.2662C0.658332 14.3796 0 15.1512 0 16.0595V23.9408C0 24.8508 0.658332 25.6224 1.51658 25.7307L6.12975 26.4107C6.52637 27.314 7.02971 28.2006 7.65469 29.1006L5.89976 33.5938C5.57477 34.4454 5.90976 35.3821 6.67473 35.8087L13.3245 39.7619C13.6078 39.9202 13.9144 39.9969 14.2161 39.9969C14.7527 39.9969 15.2744 39.7552 15.6244 39.3003L18.4976 35.522C19.3842 35.6187 20.6209 35.6187 21.5058 35.522L24.3824 39.3053C24.924 40.0086 25.8889 40.2019 26.6956 39.7502L28.6122 38.6103C29.0072 38.3753 29.1372 37.8637 28.9022 37.4687C28.6672 37.0737 28.1556 36.9421 27.7606 37.1787L25.7057 38.2937L22.5442 34.1355C22.3642 33.8988 22.0742 33.7788 21.7742 33.8138C20.7642 33.9438 19.2409 33.9438 18.231 33.8138C17.9326 33.7805 17.641 33.8988 17.461 34.1355L14.1611 38.3187L7.51141 34.3655C7.44805 34.3288 7.43805 34.2488 7.45977 34.1938L9.37634 29.2874C9.42738 29.1569 9.44467 29.0156 9.42661 28.8766C9.40854 28.7377 9.3557 28.6055 9.27298 28.4924C8.49801 27.4275 7.91639 26.3975 7.49641 25.3442C7.44226 25.2084 7.35342 25.0892 7.23877 24.9986C7.12412 24.9079 6.98767 24.849 6.84308 24.8276L1.76493 24.0792C1.75993 24.0792 1.67657 23.9392 1.67157 23.9392V16.0578L1.76493 15.9162L6.84308 15.1679C6.98775 15.1467 7.12431 15.0878 7.23899 14.9972C7.35368 14.9065 7.44247 14.7872 7.49641 14.6513C7.93303 13.5547 8.52801 12.498 9.26798 11.5114C9.35262 11.398 9.40699 11.2649 9.42594 11.1246C9.4449 10.9844 9.42783 10.8416 9.37634 10.7098L7.46805 5.82991C7.4447 5.75991 7.46641 5.65828 7.53141 5.62156L14.3011 1.70508L17.4626 5.86327C17.6426 6.09826 17.9326 6.21825 18.2326 6.1849C19.6192 6.00654 20.3892 6.00654 21.7758 6.1849C22.0775 6.2199 22.3658 6.0999 22.5458 5.86327L25.8457 1.6818L32.4937 5.63328C32.5571 5.66992 32.5687 5.74991 32.5471 5.80491L30.6305 10.7114C30.5795 10.8419 30.5622 10.9831 30.5803 11.1221C30.5983 11.2611 30.6512 11.3932 30.7339 11.5063C31.5089 12.5713 32.0905 13.6012 32.5105 14.6545C32.5646 14.7903 32.6535 14.9095 32.7681 15.0001C32.8828 15.0908 33.0192 15.1498 33.1638 15.1712L38.242 15.9195C38.247 15.9211 38.3303 16.0611 38.3353 16.0611V23.9424L38.242 24.0824L34.9854 24.5624C34.5288 24.6291 34.2138 25.0524 34.2821 25.5074C34.3488 25.9624 34.7687 26.2824 35.2271 26.2107L38.4669 25.7324C39.3403 25.6207 40.0002 24.8508 40.0002 23.9408V16.0595C39.9984 15.1512 39.3417 14.3796 38.4834 14.2696Z" fill="#868686" stroke="#868686"/>
<path d="M29.7118 23.5309C28.7819 22.6009 28.2752 21.421 28.3252 20.2927C28.4136 18.2361 27.5536 16.2728 25.6953 14.2913C24.1054 12.5963 21.9705 11.6347 19.8939 11.6647C18.0424 11.6881 16.2775 12.3347 14.7892 13.5363C14.6849 13.6208 14.6025 13.729 14.5488 13.852C14.4951 13.975 14.4718 14.109 14.4808 14.2429C14.5008 14.5145 14.6508 14.7595 14.8841 14.8979L19.9773 17.9528C19.8257 19.4843 18.9207 20.8276 17.5358 21.5443L12.9759 18.8077C12.7243 18.6561 12.3743 18.6677 12.1143 18.8094C11.99 18.8771 11.885 18.9754 11.8092 19.0949C11.7334 19.2145 11.6893 19.3514 11.681 19.4927C11.5444 21.816 12.346 24.0242 13.9359 25.7108C15.5058 27.3741 17.7158 28.3273 20.0007 28.3273C20.614 28.3273 21.229 28.2473 21.9039 28.0757L32.5419 38.7136C33.3668 39.5402 34.4634 39.9936 35.6317 39.9936C38.04 39.9936 39.9982 38.0337 39.9982 35.6254C39.9982 34.4588 39.5432 33.3621 38.7183 32.5372L29.7118 23.5309ZM35.6316 38.3286H35.6282C34.9066 38.3286 34.2283 38.0469 33.7183 37.537L22.7371 26.5558C22.5803 26.3999 22.3682 26.3124 22.1471 26.3124C22.0655 26.3124 21.9855 26.3224 21.9105 26.3458C21.1972 26.5608 20.5922 26.6608 20.0022 26.6608C18.1457 26.6608 16.424 25.9174 15.1508 24.5675C14.2075 23.5675 13.6125 22.3376 13.4108 21.0126L17.0723 23.2092C17.3173 23.3558 17.6173 23.3658 17.8739 23.2408L18.2256 23.0658C20.3471 22.0042 21.6671 19.8693 21.6671 17.4961C21.6671 17.2027 21.5121 16.9311 21.2621 16.7811L16.8623 14.1412C17.8072 13.6212 18.8438 13.3429 19.9155 13.3296C21.5238 13.3062 23.2104 14.0746 24.4803 15.4295C26.0369 17.0911 26.7302 18.6127 26.6602 20.2193C26.5902 21.8126 27.2736 23.4492 28.5335 24.7091L37.5398 33.7171C38.0514 34.2271 38.3314 34.9054 38.3314 35.6287C38.3331 37.117 37.1232 38.3286 35.6316 38.3286Z" fill="#868686" stroke="#868686"/>
</g>
<defs>
<clipPath id="clip0_112_179">
<rect width="40" height="40" fill="white"/>
</clipPath>
</defs>
</svg>
