<svg width="40" height="40" viewBox="0 0 40 40" fill="none" xmlns="http://www.w3.org/2000/svg">
<g clip-path="url(#clip0_112_184)">
<path d="M14.4331 7.43789C15.0802 7.43789 15.6049 6.9132 15.6049 6.26602V3.90625C15.6049 3.25906 15.0802 2.73438 14.4331 2.73438C13.7859 2.73438 13.2612 3.25906 13.2612 3.90625V6.26602C13.2612 6.9132 13.7859 7.43789 14.4331 7.43789ZM3.80165 11.7275L1.75797 10.5476C1.19743 10.2238 0.480709 10.416 0.157193 10.9765C-0.1664 11.537 0.0256309 12.2537 0.5861 12.5773L2.62977 13.7572C3.18899 14.0802 3.90626 13.8901 4.23055 13.3283C4.55415 12.7677 4.36212 12.051 3.80165 11.7275ZM2.62977 24.6802L0.5861 25.8601C0.0256309 26.1837 -0.1664 26.9003 0.157193 27.4609C0.482428 28.0241 1.20016 28.212 1.75797 27.8898L3.80165 26.7098C4.36212 26.3862 4.55415 25.6696 4.23055 25.1091C3.90696 24.5487 3.1904 24.3564 2.62977 24.6802ZM26.2363 13.7572L28.2799 12.5773C28.8404 12.2537 29.0324 11.537 28.7088 10.9765C28.3852 10.416 27.6687 10.2238 27.1081 10.5476L25.0644 11.7275C24.5039 12.0511 24.3119 12.7677 24.6355 13.3283C24.9607 13.8916 25.6784 14.0794 26.2363 13.7572ZM31.1645 20.8823C29.8231 17.5673 26.569 15.3755 22.9891 15.3909C21.5222 12.1246 18.2395 9.84367 14.433 9.84367C9.2636 9.84367 5.05805 14.0493 5.05805 19.2187C5.05805 22.5352 6.78993 25.4537 9.39594 27.1208C6.61727 31.5105 9.77665 37.2655 14.9749 37.2655C33.4133 37.2463 32.4044 37.3127 32.7255 37.213C36.8213 36.7511 40 33.2772 40 29.0625C40 24.2495 35.8874 20.5124 31.1645 20.8823ZM7.4018 19.2188C7.4018 15.3417 10.556 12.1875 14.4331 12.1875C17.0475 12.1875 19.3319 13.6227 20.5433 15.7459C16.8402 16.8309 14.2691 20.2116 14.2278 24.0904C13.0638 24.2181 11.9662 24.653 11.0209 25.3639C8.86423 24.1616 7.4018 21.8581 7.4018 19.2188ZM32.2822 34.9017C31.8648 34.9356 21.2303 34.9159 14.9749 34.9219C11.1107 34.9219 9.22766 30.132 12.1027 27.5066C12.9657 26.7185 14.1149 26.2992 15.367 26.4131C16.1224 26.4813 16.738 25.8277 16.6337 25.0834C16.0904 21.206 19.093 17.7344 23.0156 17.7344C25.9175 17.7344 28.4752 19.6877 29.2353 22.4845C29.3978 23.082 29.9973 23.4498 30.6034 23.3247C34.256 22.5693 37.6563 25.3615 37.6563 29.0625C37.6563 32.0903 35.2957 34.6552 32.2822 34.9017Z" fill="#868686"/>
</g>
<defs>
<clipPath id="clip0_112_184">
<rect width="40" height="40" fill="white"/>
</clipPath>
</defs>
</svg>
